<svg xmlns="http://www.w3.org/2000/svg" width="100%" height="100%" viewBox="0 0 759 138" fill="none" preserveAspectRatio="xMidYMid meet" aria-hidden="true" role="img">
<path d="M39.8438 77.2539H15.5273V71.1016H39.8438C44.9219 71.1016 49.043 70.2812 52.207 68.6406C55.4102 66.9609 57.7344 64.6953 59.1797 61.8438C60.6641 58.9922 61.4062 55.7891 61.4062 52.2344C61.4062 48.7578 60.6641 45.5547 59.1797 42.625C57.7344 39.6953 55.4102 37.3516 52.207 35.5938C49.043 33.7969 44.9219 32.8984 39.8438 32.8984H18.0469V112H10.8398V26.6875H39.8438C46.0938 26.6875 51.3477 27.7617 55.6055 29.9102C59.9023 32.0586 63.1445 35.0469 65.332 38.875C67.5195 42.7031 68.6133 47.1172 68.6133 52.1172C68.6133 57.3516 67.5195 61.8633 65.332 65.6523C63.1445 69.4023 59.9219 72.2734 55.6641 74.2656C51.4062 76.2578 46.1328 77.2539 39.8438 77.2539ZM90.1172 59.0898V112H83.1445V48.6016H89.9414L90.1172 59.0898ZM112.559 48.1328L112.383 54.5781C111.602 54.4609 110.84 54.3633 110.098 54.2852C109.355 54.207 108.555 54.168 107.695 54.168C104.648 54.168 101.973 54.7344 99.668 55.8672C97.4023 56.9609 95.4883 58.5039 93.9258 60.4961C92.3633 62.4492 91.1719 64.7539 90.3516 67.4102C89.5312 70.0273 89.0625 72.8398 88.9453 75.8477L86.3672 76.8438C86.3672 72.7031 86.7969 68.8555 87.6562 65.3008C88.5156 61.7461 89.8242 58.6406 91.582 55.9844C93.3789 53.2891 95.625 51.1992 98.3203 49.7148C101.055 48.1914 104.258 47.4297 107.93 47.4297C108.828 47.4297 109.707 47.5078 110.566 47.6641C111.465 47.7812 112.129 47.9375 112.559 48.1328ZM146.895 113.172C142.754 113.172 138.945 112.41 135.469 110.887C132.031 109.363 129.023 107.215 126.445 104.441C123.906 101.668 121.934 98.3867 120.527 94.5977C119.16 90.7695 118.477 86.5898 118.477 82.0586V79.5391C118.477 74.6562 119.199 70.2422 120.645 66.2969C122.09 62.3516 124.082 58.9727 126.621 56.1602C129.16 53.3477 132.051 51.1992 135.293 49.7148C138.574 48.1914 142.012 47.4297 145.605 47.4297C149.629 47.4297 153.203 48.1523 156.328 49.5977C159.453 51.0039 162.07 53.0156 164.18 55.6328C166.328 58.2109 167.949 61.2773 169.043 64.832C170.137 68.3477 170.684 72.2344 170.684 76.4922V80.7695H122.695V74.793H163.711V73.9727C163.633 70.418 162.91 67.0977 161.543 64.0117C160.215 60.8867 158.223 58.3477 155.566 56.3945C152.91 54.4414 149.59 53.4648 145.605 53.4648C142.637 53.4648 139.902 54.0898 137.402 55.3398C134.941 56.5898 132.812 58.3867 131.016 60.7305C129.258 63.0352 127.891 65.7891 126.914 68.9922C125.977 72.1562 125.508 75.6719 125.508 79.5391V82.0586C125.508 85.5742 126.016 88.8555 127.031 91.9023C128.086 94.9102 129.57 97.5664 131.484 99.8711C133.438 102.176 135.742 103.973 138.398 105.262C141.055 106.551 143.984 107.195 147.188 107.195C150.938 107.195 154.258 106.512 157.148 105.145C160.039 103.738 162.637 101.531 164.941 98.5234L169.336 101.922C167.969 103.953 166.25 105.828 164.18 107.547C162.148 109.266 159.707 110.633 156.855 111.648C154.004 112.664 150.684 113.172 146.895 113.172ZM226.23 48.6016H232.734V110.887C232.734 116.395 231.68 121.121 229.57 125.066C227.5 129.012 224.551 132.039 220.723 134.148C216.934 136.258 212.461 137.312 207.305 137.312C204.688 137.312 201.992 136.902 199.219 136.082C196.484 135.301 193.887 134.09 191.426 132.449C189.004 130.848 186.934 128.855 185.215 126.473L189.141 122.195C191.719 125.32 194.473 127.605 197.402 129.051C200.332 130.535 203.496 131.277 206.895 131.277C210.918 131.277 214.316 130.477 217.09 128.875C219.902 127.273 222.031 124.969 223.477 121.961C224.961 118.953 225.703 115.34 225.703 111.121V62.5469L226.23 48.6016ZM181.699 80.9453V79.7148C181.699 74.793 182.246 70.3594 183.34 66.4141C184.473 62.4297 186.094 59.0312 188.203 56.2188C190.312 53.3672 192.871 51.1992 195.879 49.7148C198.926 48.1914 202.363 47.4297 206.191 47.4297C209.863 47.4297 213.125 48.0352 215.977 49.2461C218.828 50.457 221.289 52.1953 223.359 54.4609C225.43 56.7266 227.09 59.4219 228.34 62.5469C229.629 65.6719 230.566 69.1484 231.152 72.9766V88.6211C230.684 92.2148 229.824 95.5156 228.574 98.5234C227.324 101.492 225.664 104.09 223.594 106.316C221.523 108.504 219.023 110.203 216.094 111.414C213.203 112.586 209.863 113.172 206.074 113.172C202.285 113.172 198.887 112.391 195.879 110.828C192.871 109.266 190.312 107.059 188.203 104.207C186.094 101.316 184.473 97.8984 183.34 93.9531C182.246 90.0078 181.699 85.6719 181.699 80.9453ZM188.73 79.7148V80.9453C188.73 84.6562 189.102 88.0938 189.844 91.2578C190.586 94.4219 191.719 97.1758 193.242 99.5195C194.766 101.863 196.699 103.699 199.043 105.027C201.387 106.355 204.141 107.02 207.305 107.02C211.328 107.02 214.707 106.258 217.441 104.734C220.176 103.172 222.344 101.121 223.945 98.582C225.547 96.0039 226.719 93.1914 227.461 90.1445V71.9219C227.031 69.8516 226.367 67.7422 225.469 65.5938C224.609 63.4453 223.398 61.4727 221.836 59.6758C220.312 57.8398 218.359 56.375 215.977 55.2812C213.633 54.1484 210.781 53.582 207.422 53.582C204.219 53.582 201.426 54.2461 199.043 55.5742C196.699 56.9023 194.766 58.7578 193.242 61.1406C191.719 63.4844 190.586 66.2383 189.844 69.4023C189.102 72.5664 188.73 76.0039 188.73 79.7148ZM258.047 62.1367V112H251.074V48.6016H257.754L258.047 62.1367ZM256.465 76.375L253.359 74.6172C253.594 70.8672 254.355 67.3516 255.645 64.0703C256.934 60.7891 258.672 57.8984 260.859 55.3984C263.086 52.8984 265.684 50.9453 268.652 49.5391C271.66 48.1328 274.98 47.4297 278.613 47.4297C281.777 47.4297 284.609 47.8594 287.109 48.7188C289.609 49.5781 291.738 50.9453 293.496 52.8203C295.254 54.6953 296.582 57.0977 297.48 60.0273C298.418 62.957 298.887 66.5312 298.887 70.75V112H291.855V70.6914C291.855 66.3164 291.25 62.8984 290.039 60.4375C288.828 57.9375 287.109 56.1602 284.883 55.1055C282.656 54.0508 280.02 53.5234 276.973 53.5234C273.613 53.5234 270.664 54.2656 268.125 55.75C265.625 57.1953 263.516 59.0898 261.797 61.4336C260.117 63.7383 258.828 66.2188 257.93 68.875C257.031 71.4922 256.543 73.9922 256.465 76.375ZM355.605 100.633V67.9375C355.605 64.9297 354.98 62.332 353.73 60.1445C352.48 57.957 350.645 56.2773 348.223 55.1055C345.801 53.9336 342.812 53.3477 339.258 53.3477C335.977 53.3477 333.047 53.9336 330.469 55.1055C327.93 56.2383 325.918 57.7812 324.434 59.7344C322.988 61.6484 322.266 63.7773 322.266 66.1211L315.234 66.0625C315.234 63.6797 315.82 61.375 316.992 59.1484C318.164 56.9219 319.824 54.9297 321.973 53.1719C324.121 51.4141 326.68 50.0273 329.648 49.0117C332.656 47.957 335.957 47.4297 339.551 47.4297C344.082 47.4297 348.066 48.1914 351.504 49.7148C354.98 51.2383 357.695 53.5234 359.648 56.5703C361.602 59.6172 362.578 63.4453 362.578 68.0547V98.6992C362.578 100.887 362.734 103.152 363.047 105.496C363.398 107.84 363.887 109.773 364.512 111.297V112H357.07C356.602 110.594 356.23 108.836 355.957 106.727C355.723 104.578 355.605 102.547 355.605 100.633ZM357.246 75.0859L357.363 80.4766H343.594C340 80.4766 336.777 80.8086 333.926 81.4727C331.113 82.0977 328.73 83.0352 326.777 84.2852C324.824 85.4961 323.32 86.9609 322.266 88.6797C321.25 90.3984 320.742 92.3516 320.742 94.5391C320.742 96.8047 321.309 98.875 322.441 100.75C323.613 102.625 325.254 104.129 327.363 105.262C329.512 106.355 332.051 106.902 334.98 106.902C338.887 106.902 342.324 106.18 345.293 104.734C348.301 103.289 350.781 101.395 352.734 99.0508C354.688 96.707 355.996 94.1484 356.66 91.375L359.707 95.418C359.199 97.3711 358.262 99.3828 356.895 101.453C355.566 103.484 353.828 105.398 351.68 107.195C349.531 108.953 346.992 110.398 344.062 111.531C341.172 112.625 337.891 113.172 334.219 113.172C330.078 113.172 326.465 112.391 323.379 110.828C320.332 109.266 317.949 107.137 316.23 104.441C314.551 101.707 313.711 98.6211 313.711 95.1836C313.711 92.0586 314.375 89.2656 315.703 86.8047C317.031 84.3047 318.945 82.1953 321.445 80.4766C323.984 78.7188 327.031 77.3906 330.586 76.4922C334.18 75.5547 338.203 75.0859 342.656 75.0859H357.246ZM388.359 62.1367V112H381.387V48.6016H388.066L388.359 62.1367ZM386.777 76.375L383.672 74.6172C383.906 70.8672 384.668 67.3516 385.957 64.0703C387.246 60.7891 388.984 57.8984 391.172 55.3984C393.398 52.8984 395.996 50.9453 398.965 49.5391C401.973 48.1328 405.293 47.4297 408.926 47.4297C412.09 47.4297 414.922 47.8594 417.422 48.7188C419.922 49.5781 422.051 50.9453 423.809 52.8203C425.566 54.6953 426.895 57.0977 427.793 60.0273C428.73 62.957 429.199 66.5312 429.199 70.75V112H422.168V70.6914C422.168 66.3164 421.562 62.8984 420.352 60.4375C419.141 57.9375 417.422 56.1602 415.195 55.1055C412.969 54.0508 410.332 53.5234 407.285 53.5234C403.926 53.5234 400.977 54.2656 398.438 55.75C395.938 57.1953 393.828 59.0898 392.109 61.4336C390.43 63.7383 389.141 66.2188 388.242 68.875C387.344 71.4922 386.855 73.9922 386.777 76.375ZM470.742 107.137C473.711 107.137 476.484 106.59 479.062 105.496C481.68 104.363 483.828 102.703 485.508 100.516C487.227 98.2891 488.203 95.5742 488.438 92.3711H495.117C494.922 96.3945 493.691 99.9883 491.426 103.152C489.199 106.277 486.27 108.738 482.637 110.535C479.043 112.293 475.078 113.172 470.742 113.172C466.328 113.172 462.422 112.371 459.023 110.77C455.664 109.168 452.852 106.941 450.586 104.09C448.32 101.199 446.602 97.8398 445.43 94.0117C444.297 90.1445 443.73 85.9844 443.73 81.5312V79.0703C443.73 74.6172 444.297 70.4766 445.43 66.6484C446.602 62.7812 448.32 59.4219 450.586 56.5703C452.852 53.6797 455.664 51.4336 459.023 49.832C462.383 48.2305 466.27 47.4297 470.684 47.4297C475.215 47.4297 479.277 48.3477 482.871 50.1836C486.504 52.0195 489.395 54.6172 491.543 57.9766C493.73 61.3359 494.922 65.3203 495.117 69.9297H488.438C488.242 66.5312 487.344 63.6016 485.742 61.1406C484.141 58.6797 482.031 56.7852 479.414 55.457C476.797 54.1289 473.887 53.4648 470.684 53.4648C467.09 53.4648 464.023 54.168 461.484 55.5742C458.945 56.9414 456.875 58.8359 455.273 61.2578C453.711 63.6406 452.559 66.375 451.816 69.4609C451.074 72.5078 450.703 75.7109 450.703 79.0703V81.5312C450.703 84.9297 451.055 88.1719 451.758 91.2578C452.5 94.3047 453.652 97.0195 455.215 99.4023C456.816 101.785 458.887 103.68 461.426 105.086C464.004 106.453 467.109 107.137 470.742 107.137ZM528.047 105.672L547.793 48.6016H555.352L528.516 122.195C527.969 123.641 527.266 125.242 526.406 127C525.586 128.758 524.492 130.438 523.125 132.039C521.797 133.68 520.117 135.008 518.086 136.023C516.094 137.078 513.652 137.605 510.762 137.605C510.02 137.605 509.062 137.508 507.891 137.312C506.758 137.156 505.938 137 505.43 136.844L505.371 130.926C505.801 131.043 506.426 131.141 507.246 131.219C508.066 131.297 508.633 131.336 508.945 131.336C511.484 131.336 513.613 130.906 515.332 130.047C517.09 129.188 518.555 127.898 519.727 126.18C520.898 124.5 521.934 122.391 522.832 119.852L528.047 105.672ZM509.59 48.6016L529.805 103.035L531.68 110.359L526.582 113.23L501.973 48.6016H509.59Z" fill="#171520"></path>
<path d="M690.848 32.7852L661.316 113H653.816L686.043 27.6875H691.258L690.848 32.7852ZM717.684 113L688.094 32.7852L687.684 27.6875H692.898L725.184 113H717.684ZM712.41 82.8828V89.0938H667.117V82.8828H712.41ZM746.629 27.6875V113H739.422V27.6875H746.629Z" fill="#171520"></path>
<g clip-path="url(#clip0_169_169)">
<path d="M605.917 60.5339C608.972 57.1818 612.433 55.0548 615.963 53.9412C619.677 52.7718 623.454 52.744 626.904 53.6071C630.371 54.4701 633.505 56.2353 635.924 58.6351C639.122 61.809 641.133 66.0742 641.133 70.8963C641.133 78.5247 637.351 85.7912 631.15 92.8183C625.339 99.4054 617.368 105.82 608.45 112.157C606.972 113.209 605.023 113.203 603.579 112.279V112.285L603.562 112.273V112.279L603.551 112.273L603.43 112.19C600.874 110.564 598.416 108.899 596.095 107.212C593.774 105.525 591.505 103.749 589.315 101.889C577.923 92.2113 570.713 81.6206 570.713 70.8907C570.713 65.9907 572.685 61.7366 575.831 58.5962C578.267 56.1629 581.407 54.4145 584.88 53.5681C588.313 52.7329 592.083 52.7885 595.797 53.9523C599.361 55.0659 602.857 57.1985 605.917 60.5339ZM618.571 61.8369C615.425 62.828 612.267 65.2613 609.683 69.5822C609.322 70.2448 608.766 70.8128 608.049 71.2137C606.009 72.3552 603.402 71.6703 602.233 69.688C599.654 65.3337 596.422 62.8558 593.189 61.848C591.063 61.1854 588.914 61.152 586.954 61.6253H586.943C585.023 62.0874 583.292 63.0507 581.957 64.3815C580.312 66.0241 579.281 68.2792 579.281 70.8963C579.281 78.9869 585.35 87.5006 594.926 95.6358C596.806 97.2338 598.909 98.8764 601.201 100.541C602.697 101.633 604.267 102.724 605.809 103.737C613.276 98.3029 619.866 92.8628 624.663 87.4227C629.58 81.8545 632.571 76.3308 632.571 70.8963C632.571 68.3628 631.517 66.1188 629.843 64.4539C628.479 63.1064 626.732 62.1153 624.8 61.6364C622.852 61.1464 620.703 61.1687 618.571 61.8369Z" fill="#E8A8B0"></path>
<rect x="578.274" y="61.1812" width="57.5342" height="21.5753" fill="#E8A8B0"></rect>
<rect x="583.411" y="82.7563" width="45.2055" height="11.3014" fill="#E8A8B0"></rect>
<rect x="592.658" y="94.0576" width="25.6849" height="10.274" fill="#E8A8B0"></rect>
</g>
<defs>
<clipPath id="clip0_169_169">
<rect width="75" height="59.9583" fill="white" transform="translate(568 53)"></rect>
</clipPath>
</defs>
</svg>
